<svg width="20" height="21" viewBox="0 0 20 21" fill="none" xmlns="http://www.w3.org/2000/svg">
<path d="M0 10.5C0 4.97656 4.47656 0.5 10 0.5C15.5234 0.5 20 4.97656 20 10.5C20 16.0234 15.5234 20.5 10 20.5C4.47656 20.5 0 16.0234 0 10.5ZM14.5234 8.77344C14.9492 8.34766 14.9492 7.65234 14.5234 7.22656C14.0977 6.80078 13.4023 6.80078 12.9766 7.22656L8.75 11.4531L7.02344 9.72656C6.59766 9.30078 5.90234 9.30078 5.47656 9.72656C5.05078 10.1523 5.05078 10.8477 5.47656 11.2734L7.97656 13.7734C8.40234 14.1992 9.09766 14.1992 9.52344 13.7734L14.5234 8.77344Z" fill="#D32F40"/>
</svg>
